<svg width="151" height="32" viewBox="0 0 151 32" fill="none" xmlns="http://www.w3.org/2000/svg">
<path d="M146.138 22.1104C148.865 22.1104 151.001 24.1763 151.001 26.9639C151.001 29.7516 148.865 31.8174 146.138 31.8174C143.431 31.8174 141.294 29.7517 141.294 26.9639C141.294 24.1763 143.431 22.1104 146.138 22.1104ZM16.1787 0C20.7374 5.05837e-05 24.5763 1.5081 27.6611 4.55859C30.7803 7.60917 32.3223 11.3799 32.3223 15.9043C32.3222 20.4285 30.7801 24.1985 27.6611 27.249C24.542 30.2995 20.7031 31.8085 16.1787 31.8086C11.6199 31.8086 7.78117 30.2996 4.69629 27.249C1.54292 24.1985 4.08353e-05 20.4287 0 15.9043C0 11.3799 1.54209 7.60914 4.66113 4.55859C7.78029 1.50802 11.6199 0 16.1787 0ZM87.6445 0C92.2033 0 96.043 1.50802 99.1279 4.55859C102.247 7.60914 103.789 11.3799 103.789 15.9043C103.789 20.4284 102.247 24.1986 99.1279 27.249C96.0088 30.2996 92.169 31.8086 87.6445 31.8086C83.0859 31.8085 79.2469 30.2995 76.1621 27.249C73.0432 24.1985 71.501 20.4285 71.501 15.9043C71.501 11.3799 73.043 7.60917 76.1621 4.55859C79.2469 1.50809 83.0859 7.41575e-05 87.6445 0ZM60.875 18.4062L67.0107 0.685547H74.4482L63.7197 31.4658H58.6123L51.8604 10.0771L45.1768 31.4658H40.0693L29.3408 0.719727H36.7783L42.8457 18.4062L48.2959 0.685547H55.459L60.875 18.4062ZM132.341 18.4062L138.477 0.685547H145.915L135.152 31.4658H130.045L123.292 10.0771L116.608 31.4658H111.501L100.807 0.719727H108.245L114.312 18.4062L119.762 0.685547H126.926L132.341 18.4062ZM146.138 22.9326C143.92 22.9326 142.251 24.6175 142.251 26.9639C142.251 29.3104 143.919 30.9951 146.138 30.9951C148.376 30.9951 150.045 29.3104 150.045 26.9639C150.045 24.6175 148.376 22.9326 146.138 22.9326ZM146.361 24.2764C147.643 24.2764 148.315 24.8382 148.315 25.8408C148.315 26.5828 147.847 27.0241 147.176 27.1846V27.2051C148.539 27.4259 148.112 29.4515 148.417 29.5518V29.6113H147.054C146.789 29.3707 147.236 27.7266 145.954 27.7266H145.445V29.6113H144.103V24.2764H146.361ZM145.445 26.6631H146.016C146.545 26.6631 147.033 26.5431 147.033 25.9619C147.033 25.3803 146.545 25.2793 146.016 25.2793H145.445V26.6631ZM16.1787 5.96387C13.608 5.96387 11.4484 6.92419 9.66602 8.87793C7.91804 10.8316 7.02637 13.1623 7.02637 15.9043C7.02641 18.6463 7.91795 20.9771 9.66602 22.8965C11.4141 24.8159 13.608 25.7754 16.1787 25.7754C18.7493 25.7753 20.9091 24.8159 22.6914 22.8965C24.4394 21.0114 25.33 18.6805 25.3301 15.9043C25.3301 13.1624 24.4393 10.8316 22.6914 8.87793C20.9434 6.92425 18.7493 5.96392 16.1787 5.96387ZM87.6445 5.96387C85.074 5.96395 82.9151 6.92428 81.1328 8.87793C79.3847 10.8317 78.4932 13.1622 78.4932 15.9043C78.4932 18.6463 79.3848 20.9771 81.1328 22.8965C82.8808 24.8157 85.0741 25.7753 87.6445 25.7754C90.2152 25.7754 92.3749 24.8159 94.1572 22.8965C95.9053 21.0113 96.7968 18.6806 96.7969 15.9043C96.7969 13.1623 95.9052 10.8316 94.1572 8.87793C92.4091 6.92419 90.2153 5.96387 87.6445 5.96387Z" fill="white"/>
</svg>
