<svg width="1790" height="377" viewBox="0 0 1790 377" fill="none" xmlns="http://www.w3.org/2000/svg">
<path d="M1731.53 261.983C1763.84 261.984 1789.15 286.46 1789.15 319.491C1789.15 352.523 1763.84 377 1731.53 377C1699.46 377 1674.14 352.523 1674.14 319.491C1674.14 286.46 1699.46 261.983 1731.53 261.983ZM191.692 0C245.707 5.04808e-05 291.194 17.8694 327.745 54.0146C364.703 90.16 382.979 134.835 382.979 188.443C382.978 242.052 364.702 286.726 327.745 322.871C290.788 359.016 245.301 376.887 191.692 376.887C137.677 376.887 92.1911 359.016 55.6396 322.871C18.276 286.726 4.85565e-05 242.052 0 188.443C0 134.835 18.2758 90.16 55.2334 54.0146C92.191 17.8694 137.678 0 191.692 0ZM1038.47 0C1092.48 0 1137.97 17.8695 1174.52 54.0146C1211.48 90.16 1229.75 134.835 1229.75 188.443C1229.75 242.052 1211.48 286.726 1174.52 322.871C1137.56 359.016 1092.08 376.887 1038.47 376.887C984.453 376.887 938.966 359.016 902.415 322.871C865.458 286.726 847.182 242.052 847.182 188.443C847.182 134.835 865.457 90.16 902.415 54.0146C938.966 17.8694 984.453 2.69231e-05 1038.47 0ZM721.283 218.09L793.979 8.12207H882.109L754.991 372.824H694.479L614.472 119.401L535.276 372.824H474.764L347.646 8.52832H435.775L507.659 218.09L572.234 8.12207H657.114L721.283 218.09ZM1568.06 218.09L1640.75 8.12207H1728.88L1601.36 372.824H1540.85L1460.84 119.401L1381.65 372.824H1321.13L1194.42 8.52832H1282.55L1354.43 218.09L1419.01 8.12207H1503.89L1568.06 218.09ZM1731.53 271.727C1705.24 271.727 1685.47 291.688 1685.47 319.491C1685.47 347.295 1705.24 367.257 1731.53 367.257C1758.05 367.257 1777.82 347.295 1777.82 319.491C1777.82 291.688 1758.05 271.727 1731.53 271.727ZM1734.18 287.647C1749.37 287.648 1757.33 294.302 1757.33 306.184C1757.33 314.976 1751.78 320.204 1743.82 322.105V322.343C1759.98 324.957 1754.91 348.958 1758.53 350.146V350.859H1742.38C1739.24 348.008 1744.55 328.521 1729.35 328.521H1723.33V350.859H1707.41V287.647H1734.18ZM1723.33 315.927H1730.08C1736.35 315.927 1742.13 314.501 1742.13 307.609C1742.13 300.718 1736.35 299.53 1730.08 299.53H1723.33V315.927ZM191.692 70.666C161.233 70.666 135.647 82.0382 114.528 105.188C93.8159 128.337 83.2559 155.953 83.2559 188.443C83.2559 220.933 93.8159 248.55 114.528 271.293C135.241 294.036 161.233 305.408 191.692 305.408C222.152 305.408 247.738 294.036 268.856 271.293C289.569 248.956 300.128 221.34 300.128 188.443C300.128 155.953 289.569 128.337 268.856 105.188C248.144 82.0383 222.152 70.6661 191.692 70.666ZM1038.47 70.666C1008.01 70.666 982.422 82.0383 961.304 105.188C940.591 128.337 930.032 155.953 930.032 188.443C930.032 220.933 940.591 248.55 961.304 271.293C982.016 294.036 1008.01 305.408 1038.47 305.408C1068.93 305.408 1094.51 294.036 1115.63 271.293C1136.34 248.956 1146.9 221.34 1146.9 188.443C1146.9 155.953 1136.34 128.337 1115.63 105.188C1094.92 82.0382 1068.93 70.666 1038.47 70.666Z" fill="black"/>
</svg>
